<svg height="464pt" viewBox="0 -64 464 464" width="464pt" xmlns="http://www.w3.org/2000/svg"><path d="m270.0625 136h39.875l4-32h-39.875zm0 0"/><path d="m0 264c0 13.230469 10.769531 24 24 24h416c13.230469 0 24-10.769531 24-24v-8h-464zm0 0"/><path d="m320 304h-176v16h-32v16h240v-16h-32zm0 0"/><path d="m440 0h-416c-13.230469 0-24 10.769531-24 24v216h464v-216c0-13.230469-10.769531-24-24-24zm-280 176c17.648438 0 32-14.351562 32-32h16c0 26.472656-21.527344 48-48 48s-48-21.527344-48-48v-48c0-26.472656 21.527344-48 48-48s48 21.527344 48 48h-16c0-17.648438-14.351562-32-32-32s-32 14.351562-32 32v48c0 17.648438 14.351562 32 32 32zm184-72h-13.9375l-4 32h17.9375v16h-19.9375l-4.125 32.992188-15.875-1.984376 3.875-31.007812h-39.882812l-4.125 32.992188-15.875-1.984376 3.875-31.007812h-11.929688v-16h13.9375l4-32h-17.9375v-16h19.9375l4.125-32.992188 15.875 1.984376-3.875 31.007812h39.882812l4.125-32.992188 15.875 1.984376-3.875 31.007812h11.929688zm0 0"/></svg>